<svg width="708" height="845" viewBox="0 0 708 845" fill="none" xmlns="http://www.w3.org/2000/svg">
<g id="60026 [Converted] 1" clip-path="url(#clip0_1301_16795)">
<g id="Group">
<g id="Capa 1">
<path id="Vector" d="M213.022 668.881C209.882 671.99 205.641 673.734 201.222 673.734C196.803 673.734 192.562 671.99 189.422 668.881L4.76233 484.276C1.66514 481.172 -0.0742188 476.967 -0.0742188 472.583C-0.0742188 468.199 1.66514 463.994 4.76233 460.89L189.422 276.286C192.562 273.177 196.803 271.433 201.222 271.433C205.641 271.433 209.882 273.177 213.022 276.286L397.682 460.89C400.779 463.994 402.518 468.199 402.518 472.583C402.518 476.967 400.779 481.172 397.682 484.276L213.022 668.881Z" fill="#FDC200"/>
<path id="Vector_2" d="M197.91 271.733C194.687 272.364 191.73 273.951 189.422 276.286L4.76233 460.89C1.66514 463.994 -0.0742187 468.199 -0.0742188 472.583C-0.0742187 476.968 1.66514 481.173 4.76233 484.276L189.422 668.881C191.73 671.216 194.687 672.802 197.91 673.434V271.733Z" fill="#F8AB08"/>
<path id="Vector_3" d="M211.575 644.667C208.796 647.348 205.085 648.846 201.224 648.846C197.362 648.846 193.651 647.348 190.873 644.667L29.1922 482.828C27.8212 481.497 26.7313 479.904 25.9871 478.145C25.2429 476.385 24.8594 474.494 24.8594 472.583C24.8594 470.673 25.2429 468.782 25.9871 467.022C26.7313 465.263 27.8212 463.67 29.1922 462.339L190.873 300.5C193.651 297.819 197.362 296.321 201.224 296.321C205.085 296.321 208.796 297.819 211.575 300.5L373.255 462.339C374.626 463.67 375.716 465.263 376.46 467.022C377.205 468.782 377.588 470.673 377.588 472.583C377.588 474.494 377.205 476.385 376.46 478.145C375.716 479.904 374.626 481.497 373.255 482.828L211.575 644.667Z" stroke="#352E35" stroke-width="4.82" stroke-miterlimit="10"/>
<path id="Vector_4" d="M268.502 372.934C268.502 372.934 252.975 387.214 248.628 388.042C244.28 388.87 232.273 379.971 233.102 371.278C233.723 366.105 248.421 352.652 248.421 352.652C246.048 352.021 243.623 351.606 241.175 351.411C232.273 350.79 218.61 367.967 217.368 377.487C216.588 381.12 216.791 384.895 217.955 388.423C219.119 391.952 221.203 395.106 223.993 397.562C226.475 400.316 229.633 402.375 233.154 403.537C236.676 404.698 240.439 404.921 244.073 404.184C252.975 402.736 270.779 389.284 270.158 380.384C269.904 377.844 269.348 375.343 268.502 372.934Z" fill="#352E35"/>
<path id="Vector_5" d="M146.154 455.096C146.154 455.096 161.681 440.609 166.028 439.781C170.375 438.953 182.382 448.059 181.554 456.544C180.726 465.029 166.442 475.377 166.442 475.377C168.815 476.008 171.24 476.424 173.688 476.619C182.589 477.24 196.253 460.063 197.495 450.543C198.737 441.023 197.702 437.297 190.87 430.468C184.039 423.638 177.207 422.604 170.789 423.845C164.372 425.087 143.877 438.746 144.498 447.645C144.752 450.186 145.308 452.687 146.154 455.096Z" fill="#352E35"/>
<path id="Vector_6" d="M223.71 381.237L177.16 427.773L193.716 444.324L240.266 397.788L223.71 381.237Z" fill="#352E35"/>
<path id="Vector_7" d="M205.57 426.949L240.556 462.132C242.377 463.927 244.831 464.933 247.388 464.933C249.945 464.933 252.399 463.927 254.219 462.132L260.016 456.13C261.798 454.345 262.8 451.926 262.8 449.404C262.8 446.882 261.798 444.463 260.016 442.678L225.03 407.496L205.57 426.949Z" fill="#352E35"/>
<path id="Vector_8" d="M224.821 405.012C225.491 405.707 225.866 406.634 225.866 407.599C225.866 408.564 225.491 409.492 224.821 410.186L208.053 426.949C207.358 427.62 206.43 427.994 205.465 427.994C204.499 427.994 203.572 427.62 202.877 426.949C202.207 426.255 201.832 425.328 201.832 424.363C201.832 423.397 202.207 422.47 202.877 421.776L219.646 405.012C219.975 404.655 220.375 404.369 220.821 404.174C221.266 403.979 221.747 403.878 222.233 403.878C222.72 403.878 223.201 403.979 223.646 404.174C224.091 404.369 224.491 404.655 224.821 405.012Z" fill="#352E35"/>
<path id="Vector_9" d="M174.693 371.033L168.984 376.741L211.099 418.843L216.808 413.135L174.693 371.033Z" fill="#352E35"/>
<path id="Vector_10" d="M155.058 351.411L149.469 357.205L158.163 370.864L168.928 376.659L174.725 370.864L168.928 360.103L155.058 351.411Z" fill="#352E35"/>
<path id="Vector_11" d="M148.845 521.942C147.416 520.723 146.282 519.195 145.529 517.475C144.776 515.754 144.423 513.885 144.497 512.008H155.883C155.848 512.622 155.965 513.235 156.224 513.792C156.483 514.35 156.876 514.835 157.367 515.204C157.859 515.572 158.435 515.814 159.043 515.906C159.651 515.999 160.272 515.939 160.852 515.733C161.317 515.654 161.746 515.433 162.08 515.099C162.414 514.765 162.636 514.336 162.715 513.871C162.715 512.836 161.887 511.594 159.817 510.56C157.851 509.59 155.761 508.893 153.606 508.49C151.334 508.035 149.204 507.041 147.395 505.593C146.176 504.524 145.236 503.173 144.659 501.658C144.081 500.143 143.884 498.51 144.083 496.901C144.29 489.864 151.743 486.553 158.16 486.553C169.132 486.553 173.066 491.313 173.48 498.142H162.922C162.876 497.61 162.717 497.094 162.454 496.629C162.192 496.164 161.833 495.761 161.401 495.447C160.969 495.133 160.474 494.916 159.951 494.809C159.428 494.703 158.888 494.71 158.367 494.831C156.918 495.038 155.676 495.866 155.676 497.107C155.676 498.349 156.918 499.384 160.852 500.212C168.304 501.66 175.757 505.593 175.757 512.836C175.757 520.079 168.511 525.253 159.402 525.253C155.625 525.271 151.935 524.113 148.845 521.942Z" fill="#352E35"/>
<path id="Vector_12" d="M180.312 524.426V487.381H193.148V524.426H180.312Z" fill="#352E35"/>
<path id="Vector_13" d="M205.57 524.426V497.314H198.531V487.381H225.651V497.314H218.405V524.426H205.57Z" fill="#352E35"/>
<path id="Vector_14" d="M230.824 524.426V487.381H256.908V497.314H243.452V501.661H255.459V510.353H243.452V514.699H256.908V524.426H230.824Z" fill="#352E35"/>
<path id="Vector_15" d="M143.258 547.812V531.462H151.539V548.226C151.539 550.295 155.472 550.295 155.472 548.226V531.462H163.96V547.812C163.96 552.779 159.405 556.09 153.609 556.09C147.812 556.09 143.258 552.779 143.258 547.812Z" fill="#352E35"/>
<path id="Vector_16" d="M167.684 555.469V531.462H175.343L180.933 542.638V531.462H189.006V555.469H181.14L175.55 544.5V555.469H167.684Z" fill="#352E35"/>
<path id="Vector_17" d="M192.734 555.469V531.462H201.843C210.745 531.462 214.264 537.257 214.264 543.259C214.264 549.26 210.538 555.469 201.222 555.469H192.734ZM201.015 549.053C204.327 549.674 205.984 546.777 205.984 543.259C205.984 539.74 204.327 537.464 201.015 538.085V549.053Z" fill="#352E35"/>
<path id="Vector_18" d="M217.371 555.469V531.462H234.554V537.878H225.652V540.775H233.518V546.57H225.652V549.26H234.554V555.469H217.371Z" fill="#352E35"/>
<path id="Vector_19" d="M238.07 555.469V531.462H248.835C254.218 531.462 257.53 534.153 257.53 538.913C257.537 540.109 257.186 541.281 256.522 542.276C255.858 543.272 254.911 544.046 253.804 544.5L258.772 555.469H249.663L245.937 545.535V555.469H238.07ZM245.937 540.982C247.593 540.982 250.077 541.189 250.077 539.12C250.077 537.05 247.8 537.05 245.937 537.257V540.982Z" fill="#352E35"/>
<path id="Vector_20" d="M151.332 569.956L152.781 570.784C152.407 571.771 151.761 572.632 150.918 573.267C150.022 573.939 148.933 574.302 147.813 574.302C147.125 574.331 146.439 574.218 145.798 573.968C145.157 573.718 144.575 573.338 144.088 572.852C143.601 572.365 143.221 571.783 142.972 571.142C142.722 570.501 142.608 569.815 142.637 569.128C142.632 567.686 143.146 566.29 144.086 565.196C144.573 564.71 145.156 564.33 145.797 564.08C146.439 563.831 147.125 563.718 147.813 563.747C148.997 563.746 150.153 564.107 151.125 564.782V563.954H152.367V567.266H151.125C150.832 566.633 150.409 566.068 149.883 565.61L147.813 565.196C147.344 565.135 146.868 565.199 146.432 565.381C145.996 565.562 145.615 565.856 145.329 566.231C144.711 566.985 144.414 567.951 144.5 568.921C144.442 569.451 144.505 569.987 144.684 570.489C144.864 570.991 145.155 571.446 145.536 571.819C146.194 572.479 147.087 572.851 148.02 572.853C148.808 572.785 149.554 572.467 150.15 571.946C150.745 571.425 151.159 570.728 151.332 569.956Z" fill="#352E35"/>
<path id="Vector_21" d="M154.227 568.921C154.198 568.234 154.311 567.548 154.56 566.906C154.81 566.265 155.19 565.683 155.676 565.196C156.697 564.27 158.024 563.754 159.403 563.747C160.795 563.746 162.134 564.285 163.137 565.249C164.141 566.214 164.732 567.53 164.785 568.921C164.792 569.655 164.648 570.382 164.364 571.058C164.079 571.735 163.659 572.345 163.129 572.853C162.089 573.748 160.774 574.259 159.403 574.302C158.436 574.349 157.484 574.056 156.711 573.474C155.904 573.073 155.25 572.419 154.848 571.612C154.428 570.778 154.214 569.855 154.227 568.921ZM155.883 568.921C155.825 569.451 155.888 569.987 156.067 570.489C156.247 570.991 156.538 571.446 156.919 571.819C157.577 572.479 158.47 572.851 159.403 572.853C159.912 572.895 160.424 572.818 160.899 572.628C161.374 572.439 161.798 572.142 162.139 571.761C162.48 571.38 162.728 570.926 162.864 570.433C163 569.94 163.02 569.423 162.922 568.921C162.95 568.442 162.88 567.962 162.716 567.511C162.552 567.06 162.297 566.648 161.967 566.299C161.638 565.95 161.24 565.672 160.799 565.482C160.358 565.293 159.883 565.195 159.403 565.196C158.934 565.135 158.458 565.199 158.022 565.381C157.586 565.562 157.205 565.856 156.919 566.231C156.566 566.581 156.291 567.001 156.113 567.465C155.934 567.929 155.856 568.425 155.883 568.921Z" fill="#352E35"/>
<path id="Vector_22" d="M166.855 572.853V565.196H165.406V563.954H168.926L173.48 571.818V565.196H172.031V563.954H176.171V565.196H174.722V574.095H173.066L168.304 565.61V572.853H169.754V574.095H165.406V572.853H166.855Z" fill="#352E35"/>
<path id="Vector_23" d="M176.586 574.095V570.37H178.035V571.405C178.656 572.44 179.277 573.06 180.312 573.06C180.778 572.981 181.207 572.76 181.541 572.426C181.874 572.092 182.096 571.663 182.175 571.198C182.161 570.815 182.015 570.45 181.761 570.163L180.105 569.542L178.035 568.921C177.609 568.766 177.245 568.475 177 568.093C176.77 567.642 176.629 567.15 176.586 566.645C176.596 565.876 176.891 565.139 177.414 564.575C177.719 564.292 178.077 564.072 178.468 563.93C178.86 563.788 179.276 563.726 179.691 563.747C180.524 563.745 181.331 564.038 181.968 564.575V563.954H183.211V567.059H181.968V566.231C181.724 565.849 181.387 565.535 180.989 565.318C180.591 565.101 180.145 564.988 179.691 564.989L178.449 565.403C178.242 565.817 178.035 566.024 178.035 566.438C178.026 566.55 178.039 566.663 178.075 566.77C178.11 566.876 178.167 566.975 178.242 567.059L178.863 567.473C179.031 567.622 179.228 567.736 179.442 567.807C179.655 567.879 179.881 567.906 180.105 567.886L182.175 568.714C182.602 568.869 182.966 569.16 183.211 569.542C183.443 570.066 183.583 570.626 183.625 571.198C183.646 571.613 183.584 572.029 183.442 572.42C183.3 572.811 183.08 573.17 182.796 573.474C182.131 573.96 181.341 574.248 180.519 574.302C179.587 574.3 178.693 573.928 178.035 573.267V574.095H176.586Z" fill="#352E35"/>
<path id="Vector_24" d="M187.558 572.853V565.196H185.488V567.886H184.246V563.954H192.527V567.886H191.285V565.196H189.215V572.853H190.457V574.095H186.316V572.853H187.558Z" fill="#352E35"/>
<path id="Vector_25" d="M194.184 572.853V565.196H192.941V563.954H198.945C199.198 563.999 199.439 564.096 199.653 564.238C199.866 564.381 200.048 564.566 200.187 564.782C200.396 565.003 200.558 565.263 200.665 565.547C200.772 565.831 200.82 566.134 200.808 566.438C200.779 567.02 200.561 567.577 200.188 568.025C199.814 568.473 199.306 568.787 198.738 568.921L200.394 572.646H201.636V573.888H199.566L197.289 569.128H195.84V572.646H197.082V573.888H192.941V572.646L194.184 572.853ZM195.84 568.093H198.324L198.945 567.679C199.152 567.472 199.152 567.265 199.152 566.851C199.152 566.438 199.152 566.231 198.945 566.024L198.324 565.61H195.84V568.093Z" fill="#352E35"/>
<path id="Vector_26" d="M204.742 565.196V572.025L205.363 572.646L206.605 573.06L208.054 572.646L208.675 572.025C208.675 571.611 208.882 571.198 208.882 570.37V565.196H207.64V563.954H211.574V565.196H210.331V572.025C210.206 572.413 209.993 572.767 209.71 573.06C209.465 573.442 209.102 573.733 208.675 573.888L206.812 574.302L204.949 573.888L203.707 573.267C203.476 572.89 203.334 572.465 203.293 572.025C203.086 571.818 203.086 571.198 203.086 570.37V565.196H201.844V563.954H205.777V565.196H204.742Z" fill="#352E35"/>
<path id="Vector_27" d="M221.096 569.956L222.338 570.784C222.114 571.789 221.524 572.674 220.682 573.267C219.758 573.884 218.686 574.241 217.577 574.302C216.89 574.32 216.208 574.201 215.568 573.952C214.928 573.703 214.344 573.33 213.85 572.853C213.364 572.367 212.984 571.784 212.734 571.143C212.485 570.502 212.371 569.816 212.401 569.128C212.355 568.408 212.46 567.686 212.71 567.009C212.959 566.332 213.348 565.714 213.85 565.196C214.31 564.674 214.889 564.27 215.537 564.018C216.185 563.766 216.885 563.673 217.577 563.747C218.757 563.771 219.906 564.129 220.889 564.782V563.954H222.131V567.266H220.889C220.52 566.623 220.028 566.06 219.44 565.61L217.577 565.196C217.108 565.135 216.632 565.199 216.196 565.381C215.76 565.562 215.379 565.855 215.092 566.231C214.419 566.964 214.049 567.926 214.057 568.921C214.056 569.978 214.422 571.002 215.092 571.819C215.79 572.417 216.66 572.78 217.577 572.853C218.41 572.856 219.217 572.562 219.854 572.025C220.197 571.79 220.486 571.483 220.701 571.126C220.915 570.769 221.05 570.37 221.096 569.956Z" fill="#352E35"/>
<path id="Vector_28" d="M226.683 572.853V565.196H224.613V567.886H223.371V563.954H231.445V567.886H230.203V565.196H228.133V572.853H229.582V574.095H225.441V572.853H226.683Z" fill="#352E35"/>
<path id="Vector_29" d="M233.309 572.853V565.196H232.273V563.954H236V565.196H234.758V572.853H236V574.095H232.273V572.853H233.309Z" fill="#352E35"/>
<path id="Vector_30" d="M237.036 568.921C237.079 567.55 237.59 566.236 238.485 565.196C239.579 564.256 240.976 563.742 242.418 563.747C243.789 563.79 245.104 564.301 246.144 565.196C246.631 565.683 247.011 566.265 247.26 566.906C247.51 567.548 247.623 568.234 247.594 568.921C247.64 569.641 247.535 570.363 247.285 571.04C247.036 571.718 246.647 572.335 246.144 572.853C245.104 573.747 243.789 574.259 242.418 574.302C241.388 574.347 240.371 574.056 239.52 573.474C238.713 573.073 238.058 572.419 237.657 571.611C237.236 570.778 237.023 569.855 237.036 568.921ZM238.899 568.921C238.82 569.955 239.114 570.982 239.727 571.818C240.461 572.491 241.422 572.861 242.418 572.853C243.351 572.851 244.244 572.479 244.902 571.818C245.573 571.002 245.939 569.978 245.937 568.921C245.909 567.933 245.544 566.984 244.902 566.231C244.244 565.57 243.351 565.198 242.418 565.196C241.919 565.138 241.414 565.202 240.945 565.382C240.476 565.562 240.058 565.853 239.727 566.231C239.145 567.003 238.852 567.955 238.899 568.921Z" fill="#352E35"/>
<path id="Vector_31" d="M249.871 572.853V565.196H248.422V563.954H251.941L256.289 571.818V565.196H254.839V563.954H258.98V565.196H257.531V574.095H256.082L251.113 565.61V572.853H252.562V574.095H248.422V572.853H249.871Z" fill="#352E35"/>
<path id="Vector_32" d="M210.537 323.058C210.537 325.555 209.797 327.996 208.409 330.072C207.022 332.148 205.049 333.766 202.742 334.721C200.434 335.677 197.895 335.927 195.446 335.44C192.996 334.952 190.746 333.75 188.98 331.985C187.214 330.219 186.011 327.97 185.524 325.521C185.037 323.072 185.287 320.534 186.243 318.227C187.198 315.92 188.817 313.948 190.894 312.561C192.97 311.174 195.412 310.434 197.909 310.434C201.258 310.434 204.47 311.764 206.839 314.131C209.207 316.499 210.537 319.71 210.537 323.058Z" fill="#F6F6F6"/>
<path id="Vector_33" d="M176.793 0H170.789V142.592H176.793V0Z" fill="#706F6F"/>
<path id="Vector_34" d="M227.304 0H221.301V142.592H227.304V0Z" fill="#706F6F"/>
<path id="Vector_35" d="M199.565 274.423V259.108H190.664V285.185C190.664 285.185 212.608 281.46 212.608 298.637C212.608 302.26 211.168 305.734 208.606 308.295C206.043 310.857 202.568 312.296 198.944 312.296C197.103 312.273 195.281 311.923 193.562 311.261C191.701 311.839 190.02 312.884 188.679 314.298C187.337 315.711 186.382 317.444 185.902 319.332C189.829 321.74 194.339 323.028 198.944 323.058C205.019 322.58 210.696 319.85 214.861 315.404C219.026 310.957 221.379 305.115 221.456 299.024C221.534 292.932 219.332 287.032 215.282 282.481C211.232 277.929 205.626 275.055 199.565 274.423Z" fill="#B0B0B0"/>
<path id="Vector_36" d="M203.706 230.342H184.867V264.903H203.706V230.342Z" fill="#8C8C8B"/>
<g id="Vector_37" style="mix-blend-mode:multiply">
<path d="M194.39 230.342H184.867V264.903H194.39V230.342Z" fill="#8C8C8B"/>
</g>
<path id="Vector_38" d="M238.28 155.01H157.129V194.538L175.76 238.413H218.82L238.28 194.538V155.01Z" fill="#FAB700"/>
<path id="Vector_39" d="M232.894 155.01H162.508V192.469L178.655 234.067H215.918L232.894 192.469V155.01Z" fill="#FFDE00"/>
<path id="Vector_40" d="M231.446 195.987L181.762 234.067H207.432L219.853 224.754L231.446 195.987Z" fill="#352E35"/>
<path id="Vector_41" d="M232.894 157.907L168.305 207.37L174.101 222.477L232.894 177.568V157.907Z" fill="#352E35"/>
<path id="Vector_42" d="M181.553 155.01L162.508 169.497V189.157L207.224 155.01H181.553Z" fill="#352E35"/>
<path id="Vector_43" d="M208.467 175.705C208.467 177.834 207.836 179.914 206.653 181.684C205.47 183.454 203.789 184.833 201.822 185.648C199.855 186.462 197.69 186.675 195.602 186.26C193.514 185.845 191.596 184.82 190.09 183.315C188.585 181.81 187.56 179.892 187.144 177.805C186.729 175.717 186.942 173.553 187.757 171.587C188.572 169.621 189.951 167.94 191.722 166.757C193.492 165.575 195.573 164.944 197.702 164.944C200.557 164.944 203.296 166.077 205.314 168.096C207.333 170.114 208.467 172.851 208.467 175.705Z" fill="#A4A3A3"/>
<path id="Vector_44" d="M200.603 179.844C200.076 180.247 199.474 180.539 198.832 180.705C198.19 180.871 197.521 180.907 196.865 180.81C196.209 180.714 195.579 180.487 195.013 180.144C194.446 179.8 193.953 179.347 193.564 178.81C193.038 178.28 192.633 177.642 192.377 176.941C192.12 176.24 192.019 175.491 192.079 174.747C192.14 174.003 192.361 173.28 192.727 172.63C193.093 171.979 193.595 171.415 194.2 170.977C194.805 170.538 195.497 170.236 196.23 170.091C196.962 169.945 197.718 169.96 198.444 170.134C199.17 170.308 199.85 170.637 200.437 171.099C201.025 171.56 201.505 172.143 201.845 172.808C202.237 173.348 202.516 173.96 202.666 174.61C202.816 175.26 202.833 175.933 202.718 176.59C202.602 177.246 202.355 177.873 201.991 178.432C201.628 178.991 201.156 179.472 200.603 179.844Z" fill="#8C8C8B"/>
<g id="Vector_45" style="mix-blend-mode:multiply">
<path d="M193.564 178.81C193.038 178.28 192.633 177.642 192.377 176.941C192.12 176.24 192.019 175.491 192.079 174.747C192.14 174.003 192.361 173.28 192.727 172.63C193.093 171.979 193.595 171.415 194.2 170.977C194.805 170.538 195.497 170.236 196.23 170.091C196.962 169.945 197.718 169.96 198.444 170.134C199.17 170.308 199.85 170.637 200.437 171.099C201.025 171.56 201.505 172.143 201.845 172.808L193.564 178.81Z" fill="#8C8C8B"/>
</g>
<path id="Vector_46" d="M238.28 137.625H157.129V156.541H238.28V137.625Z" fill="#8C8C8B"/>
<g id="Vector_47" style="mix-blend-mode:multiply">
<path d="M238.28 151.906H157.129V156.645H238.28V151.906Z" fill="#8C8C8B"/>
</g>
<g id="Vector_48" style="mix-blend-mode:soft-light">
<path d="M236.003 141.144C236.003 141.528 235.85 141.896 235.578 142.168C235.306 142.44 234.938 142.592 234.554 142.592H159.82C159.63 142.592 159.441 142.555 159.266 142.482C159.09 142.409 158.93 142.303 158.796 142.168C158.661 142.034 158.554 141.874 158.481 141.698C158.409 141.522 158.371 141.334 158.371 141.144C158.371 140.76 158.524 140.391 158.796 140.119C159.067 139.848 159.436 139.695 159.82 139.695H234.554C234.938 139.695 235.306 139.848 235.578 140.119C235.85 140.391 236.003 140.76 236.003 141.144Z" fill="white"/>
</g>
<path id="Vector_49" d="M518.372 840.033C516.849 841.591 515.029 842.829 513.021 843.675C511.012 844.52 508.855 844.955 506.676 844.955C504.496 844.955 502.339 844.52 500.33 843.675C498.322 842.829 496.502 841.591 494.979 840.033L310.319 655.636C307.209 652.497 305.465 648.257 305.465 643.839C305.465 639.421 307.209 635.182 310.319 632.043L494.979 447.438C498.084 444.342 502.29 442.603 506.676 442.603C511.061 442.603 515.267 444.342 518.372 447.438L703.032 632.043C706.142 635.182 707.886 639.421 707.886 643.839C707.886 648.257 706.142 652.497 703.032 655.636L518.372 840.033Z" fill="#FDC200"/>
<path id="Vector_50" d="M503.26 442.885C500.132 443.61 497.266 445.186 494.979 447.438L310.319 632.043C307.209 635.182 305.465 639.421 305.465 643.839C305.465 648.257 307.209 652.497 310.319 655.636L494.979 840.033C497.207 842.363 500.098 843.953 503.26 844.586V442.885Z" fill="#F8AB08"/>
<path id="Vector_51" d="M516.922 815.819C515.591 817.19 513.998 818.28 512.238 819.024C510.477 819.768 508.586 820.151 506.675 820.151C504.764 820.151 502.872 819.768 501.112 819.024C499.352 818.28 497.759 817.19 496.427 815.819L334.54 654.187C331.858 651.409 330.359 647.7 330.359 643.839C330.359 639.979 331.858 636.269 334.54 633.491L496.427 471.652C499.171 468.985 502.847 467.492 506.675 467.492C510.502 467.492 514.178 468.985 516.922 471.652L678.81 633.491C681.491 636.269 682.99 639.979 682.99 643.839C682.99 647.7 681.491 651.409 678.81 654.187L516.922 815.819Z" stroke="#352E35" stroke-width="4.82" stroke-miterlimit="10"/>
<path id="Vector_52" d="M516.096 494.417C516.096 496.955 515.343 499.436 513.933 501.546C512.522 503.656 510.518 505.301 508.173 506.272C505.827 507.243 503.247 507.497 500.757 507.002C498.267 506.507 495.98 505.285 494.185 503.49C492.39 501.696 491.168 499.41 490.672 496.92C490.177 494.431 490.431 491.852 491.403 489.507C492.374 487.162 494.019 485.158 496.13 483.748C498.241 482.338 500.722 481.586 503.261 481.586C506.665 481.586 509.93 482.938 512.337 485.344C514.744 487.75 516.096 491.014 516.096 494.417Z" fill="#F6F6F6"/>
<path id="Vector_53" d="M532.865 548.226C531.988 550.255 530.717 552.092 529.127 553.628C527.537 555.165 525.658 556.372 523.599 557.18C521.54 557.988 519.342 558.381 517.13 558.336C514.919 558.291 512.738 557.809 510.714 556.918C508.658 556.042 506.798 554.764 505.243 553.159C503.688 551.554 502.47 549.654 501.66 547.572C500.85 545.49 500.464 543.266 500.526 541.033C500.588 538.8 501.095 536.601 502.019 534.566C502.897 532.537 504.167 530.701 505.757 529.164C507.348 527.627 509.226 526.42 511.285 525.612C513.344 524.804 515.543 524.411 517.754 524.456C519.965 524.501 522.146 524.983 524.17 525.874C528.249 527.731 531.441 531.107 533.065 535.282C534.689 539.458 534.618 544.102 532.865 548.226Z" fill="#352E35"/>
<path id="Vector_54" d="M503.883 530.221C504.78 528.196 506.067 526.368 507.671 524.84C509.275 523.313 511.164 522.116 513.231 521.319C515.297 520.521 517.501 520.138 519.715 520.192C521.93 520.246 524.112 520.735 526.137 521.632C528.163 522.529 529.991 523.816 531.519 525.419C533.047 527.023 534.244 528.911 535.042 530.977C535.84 533.043 536.223 535.246 536.169 537.459C536.115 539.673 535.626 541.855 534.728 543.88L503.883 530.221Z" fill="#352E35"/>
<path id="Vector_55" d="M536.591 548.639L499.121 532.29C498.086 531.669 498.086 529.393 498.086 529.393L503.882 530.22L534.728 543.879L539.282 547.398C539.282 547.398 537.626 549.053 536.591 548.639Z" fill="#352E35"/>
<path id="Vector_56" d="M532.658 526.702L529.139 534.36C529.05 534.569 528.919 534.757 528.754 534.914C528.589 535.07 528.394 535.191 528.18 535.269C527.967 535.346 527.74 535.379 527.513 535.365C527.286 535.351 527.064 535.291 526.862 535.187C526.653 535.099 526.464 534.968 526.307 534.803C526.151 534.638 526.03 534.443 525.952 534.229C525.875 534.016 525.842 533.788 525.856 533.562C525.87 533.335 525.93 533.113 526.034 532.911L529.967 524.012L527.69 522.356L523.964 530.841C523.749 531.239 523.41 531.555 522.999 531.742C522.588 531.928 522.127 531.976 521.686 531.876C521.477 531.787 521.288 531.657 521.132 531.492C520.976 531.327 520.855 531.131 520.777 530.918C520.699 530.704 520.666 530.477 520.68 530.25C520.694 530.024 520.755 529.802 520.858 529.6L524.585 520.907L521.686 520.287L517.753 529.393C517.561 529.804 517.213 530.123 516.786 530.278C516.359 530.433 515.888 530.413 515.476 530.221C515.064 530.028 514.745 529.681 514.59 529.254C514.435 528.827 514.456 528.356 514.648 527.944L517.96 520.287C514.928 520.492 512.01 521.527 509.527 523.279C507.044 525.031 505.092 527.433 503.883 530.221L534.728 543.88C536.001 541.104 536.482 538.031 536.116 534.999C535.751 531.968 534.554 529.096 532.658 526.702Z" fill="#352E35"/>
<path id="Vector_57" d="M521.685 531.876C522.125 531.976 522.586 531.928 522.997 531.742C523.409 531.555 523.747 531.239 523.962 530.841L527.688 522.356L526.032 521.528L524.583 520.907L520.857 529.6C520.753 529.802 520.693 530.024 520.679 530.25C520.665 530.477 520.698 530.704 520.776 530.918C520.853 531.131 520.974 531.327 521.13 531.492C521.287 531.657 521.476 531.787 521.685 531.876Z" fill="#352E35"/>
<path id="Vector_58" d="M526.861 535.187C527.063 535.291 527.285 535.351 527.512 535.365C527.738 535.379 527.966 535.346 528.179 535.269C528.393 535.191 528.588 535.07 528.753 534.914C528.918 534.757 529.049 534.569 529.138 534.36L532.657 526.702L529.966 524.012L526.033 532.911C525.929 533.113 525.869 533.335 525.855 533.562C525.841 533.788 525.874 534.016 525.951 534.229C526.029 534.443 526.15 534.638 526.306 534.803C526.463 534.968 526.651 535.099 526.861 535.187Z" fill="#352E35"/>
<path id="Vector_59" d="M515.474 530.221C515.676 530.324 515.898 530.384 516.125 530.398C516.352 530.412 516.579 530.379 516.793 530.302C517.006 530.224 517.202 530.103 517.366 529.947C517.531 529.791 517.662 529.602 517.751 529.393L521.684 520.287H517.958L514.646 527.944C514.543 528.146 514.482 528.368 514.468 528.595C514.454 528.822 514.487 529.049 514.565 529.262C514.642 529.476 514.763 529.671 514.92 529.836C515.076 530.001 515.265 530.132 515.474 530.221Z" fill="#352E35"/>
<path id="Vector_60" d="M525.203 570.577C524.375 572.439 508.642 605.552 502.017 617.97C501.171 619.258 499.902 620.211 498.428 620.665C496.954 621.118 495.368 621.043 493.944 620.453C491.252 619.211 479.866 615.9 476.968 614.658C474.07 613.417 471.586 607.001 472.828 603.69C477.382 590.031 489.803 557.332 490.631 555.469C491.174 554.307 492.144 553.4 493.34 552.937C494.537 552.474 495.865 552.491 497.049 552.986L522.719 564.161C523.313 564.408 523.851 564.772 524.3 565.232C524.749 565.693 525.1 566.239 525.332 566.838C525.564 567.438 525.673 568.078 525.65 568.721C525.628 569.363 525.476 569.995 525.203 570.577Z" fill="#352E35"/>
<path id="Vector_61" d="M528.517 623.144C527.793 623.172 527.071 623.053 526.394 622.795C525.716 622.537 525.098 622.145 524.576 621.643C524.055 621.14 523.639 620.538 523.356 619.871C523.073 619.204 522.927 618.487 522.927 617.763C522.927 617.556 522.72 607.829 521.892 597.274C520.236 578.855 517.752 574.716 517.338 574.095C516.168 573.295 515.347 572.08 515.039 570.697C514.732 569.313 514.962 567.865 515.682 566.645C516.043 565.999 516.534 565.436 517.123 564.988C517.712 564.541 518.387 564.22 519.106 564.046C519.825 563.871 520.572 563.846 521.3 563.973C522.029 564.099 522.724 564.375 523.341 564.782C526.861 566.852 530.587 572.026 532.657 594.791C533.899 606.173 534.106 617.142 534.106 617.556C534.106 619.038 533.518 620.459 532.469 621.507C531.421 622.555 529.999 623.144 528.517 623.144Z" fill="#352E35"/>
<path id="Vector_62" d="M463.515 587.133H462.066C461.368 586.964 460.711 586.658 460.134 586.231C459.556 585.805 459.07 585.267 458.704 584.65C458.337 584.033 458.098 583.349 458 582.638C457.902 581.927 457.947 581.204 458.133 580.511C459.168 575.958 463.101 560.643 467.034 555.676C470.968 550.709 475.108 550.709 483.803 551.123C488.443 551.38 493.033 552.214 497.466 553.606C498.251 553.803 498.984 554.167 499.615 554.674C500.245 555.181 500.758 555.819 501.118 556.544C501.478 557.269 501.676 558.063 501.698 558.872C501.721 559.681 501.567 560.485 501.248 561.229C500.929 561.972 500.453 562.638 499.851 563.179C499.25 563.721 498.538 564.125 497.765 564.365C496.992 564.604 496.176 564.673 495.374 564.567C494.572 564.46 493.802 564.18 493.119 563.747C490.013 562.712 478.627 561.471 475.522 562.712C472.417 563.954 470.761 575.13 468.898 583.201C468.542 584.347 467.826 585.349 466.857 586.057C465.887 586.765 464.716 587.143 463.515 587.133Z" fill="#352E35"/>
<path id="Vector_63" d="M473.45 677.366C472.534 677.429 471.615 677.287 470.759 676.952C469.795 676.588 468.915 676.033 468.171 675.32C467.427 674.608 466.834 673.753 466.428 672.806C466.022 671.859 465.811 670.84 465.809 669.81C465.806 668.78 466.011 667.76 466.412 666.811L478.833 636.182L473.243 609.898C472.866 607.873 473.278 605.781 474.394 604.049C475.51 602.318 477.246 601.079 479.247 600.585C481.247 600.214 483.313 600.632 485.011 601.751C486.709 602.87 487.908 604.603 488.356 606.587L494.359 635.354C494.732 636.875 494.586 638.478 493.945 639.907L480.696 672.606C480.111 674.038 479.105 675.26 477.812 676.109C476.518 676.959 474.998 677.397 473.45 677.366Z" fill="#352E35"/>
<path id="Vector_64" d="M508.435 677.366H507.4C506.39 677.239 505.416 676.912 504.534 676.404C503.652 675.897 502.88 675.218 502.264 674.409C501.647 673.6 501.198 672.676 500.942 671.691C500.687 670.706 500.63 669.681 500.775 668.674L505.537 636.596L491.667 617.556C491.069 616.74 490.637 615.815 490.397 614.833C490.156 613.851 490.112 612.831 490.265 611.832C490.419 610.833 490.768 609.873 491.293 609.009C491.818 608.145 492.507 607.392 493.323 606.794C494.138 606.196 495.064 605.765 496.046 605.524C497.029 605.284 498.049 605.239 499.048 605.393C500.048 605.547 501.008 605.896 501.872 606.42C502.737 606.945 503.49 607.634 504.088 608.45L519.821 629.973C520.995 631.585 521.513 633.582 521.27 635.561L516.095 670.95C515.759 672.741 514.812 674.36 513.415 675.53C512.018 676.7 510.258 677.349 508.435 677.366Z" fill="#352E35"/>
<path id="Vector_65" d="M506.365 609.484L515.681 590.238C515.139 580.885 516.189 571.507 518.786 562.505C519.614 560.643 515.681 559.608 515.06 560.85C514.439 562.092 503.467 573.06 503.467 573.06C503.467 573.06 504.295 557.332 504.709 556.297C505.123 555.262 499.948 552.986 499.327 554.02C498.705 555.055 490.839 571.198 482.972 575.751L475.52 596.032C479.728 599.649 484.478 602.582 489.597 604.724C494.922 607.127 500.572 608.731 506.365 609.484Z" fill="#352E35"/>
<path id="Vector_66" d="M479.039 586.512C478.418 588.375 477.59 590.03 476.969 591.893L508.228 605.552L510.92 600.378L479.039 586.512Z" fill="#352E35"/>
<path id="Vector_67" d="M512.99 595.825C513.833 594.28 514.593 592.691 515.267 591.065L482.558 576.785L480.695 581.545L512.99 595.825Z" fill="#352E35"/>
<path id="Vector_68" d="M507.046 565.354L488.656 607.233L489.225 607.483L507.614 565.603L507.046 565.354Z" fill="#352E35"/>
<path id="Vector_69" d="M471.171 576.371L462.062 589.617L460.613 588.582L469.515 575.337L471.171 576.371Z" fill="#352E35"/>
<path id="Vector_70" d="M475.816 586.824L473.477 590.239L553.485 645.006L555.824 641.59L475.816 586.824Z" fill="#352E35"/>
<path id="Vector_71" d="M575.51 644.046C579.236 646.529 581.721 656.256 579.236 659.775C576.752 663.293 567.229 664.328 563.296 661.637L551.91 653.98C554.158 646.983 558.403 640.796 564.124 636.182L575.51 644.046Z" fill="#352E35"/>
<path id="Vector_72" d="M551.703 643.839L554.601 639.7L564.331 646.323C565.021 646.868 565.583 647.559 565.977 648.346C566.37 649.133 566.586 649.996 566.608 650.876C564.917 651.446 563.074 651.373 561.433 650.669L551.703 643.839Z" fill="#352E35"/>
<path id="Vector_73" d="M475.73 580.105L472.832 584.399L478.605 588.293L481.504 583.999L475.73 580.105Z" fill="#352E35"/>
<path id="Vector_74" d="M468.687 575.751C470.55 577.406 474.483 581.546 472.62 584.236L470.55 587.547C468.48 590.445 463.304 587.961 461.234 586.926L459.785 588.789C459.785 588.789 469.308 594.584 472.413 589.617L475.311 585.478C478.417 580.925 470.136 573.888 470.136 573.888L468.687 575.751Z" fill="#352E35"/>
<path id="Vector_75" d="M457.304 705.098C457.317 706.434 457.107 707.763 456.683 709.03C456.192 710.247 455.491 711.368 454.612 712.341C453.802 713.392 452.822 714.301 451.714 715.032C450.55 715.745 449.297 716.302 447.988 716.687L446.332 717.101H442.605L440.949 716.687C439.655 716.262 438.406 715.707 437.223 715.032C435.064 713.507 433.349 711.436 432.254 709.03C431.83 707.763 431.62 706.434 431.633 705.098V685.644H440.121V704.477C440.136 705.053 440.278 705.618 440.535 706.133C440.616 706.399 440.749 706.645 440.926 706.859C441.104 707.072 441.323 707.247 441.57 707.374L442.812 708.202L444.469 708.616L446.125 708.202L447.574 707.374C447.947 707.034 448.231 706.608 448.402 706.133C448.659 705.618 448.801 705.053 448.816 704.477V685.644H457.304V705.098Z" fill="#352E35"/>
<path id="Vector_76" d="M480.901 716.274L470.343 699.924V716.274H462.062V685.644H470.136L480.901 702.201V685.644H489.182V716.274H480.901Z" fill="#352E35"/>
<path id="Vector_77" d="M508.437 716.274H494.566V685.644H508.437C510.502 685.638 512.547 686.061 514.44 686.886C516.288 687.671 517.973 688.794 519.408 690.197C520.787 691.574 521.909 693.186 522.721 694.957C524.094 698.84 524.094 703.077 522.721 706.961C521.863 708.768 520.747 710.441 519.408 711.927C517.964 713.268 516.278 714.322 514.44 715.032C512.547 715.857 510.502 716.28 508.437 716.274ZM507.402 693.095H502.64V708.823H507.402C508.471 708.862 509.535 708.65 510.507 708.202C511.438 707.824 512.283 707.26 512.991 706.547C513.834 705.911 514.48 705.05 514.854 704.063C515.409 702.031 515.409 699.887 514.854 697.855C514.37 696.932 513.741 696.094 512.991 695.371C512.283 694.657 511.438 694.094 510.507 693.715C509.535 693.268 508.471 693.055 507.402 693.095Z" fill="#352E35"/>
<path id="Vector_78" d="M527.48 716.274V685.644H552.116V692.888H535.554V697.234H551.081V704.684H535.554V709.03H552.116V716.274H527.48Z" fill="#352E35"/>
<path id="Vector_79" d="M575.51 716.274L570.128 706.754H564.953V716.274H556.465V685.644H571.991L574.061 686.058L576.339 687.093C577.115 687.527 577.815 688.086 578.409 688.748L579.858 690.404C580.476 691.192 580.902 692.113 581.1 693.094C581.325 694.046 581.464 695.016 581.514 695.992C581.519 697.502 581.164 698.992 580.479 700.338C579.726 701.676 578.661 702.812 577.374 703.649L584.619 716.274H575.51ZM569.507 692.474H564.746V699.096H570.749L571.991 698.268L572.612 697.234C572.881 696.875 573.026 696.44 573.026 695.992C573.026 695.544 572.881 695.108 572.612 694.75L571.991 693.715L570.749 692.888L569.507 692.474Z" fill="#352E35"/>
<path id="Vector_80" d="M439.293 732.623C438.293 732.638 437.302 732.425 436.395 732.002C435.539 731.692 434.761 731.198 434.117 730.554C433.473 729.911 432.979 729.133 432.669 728.277C432.245 727.371 432.033 726.38 432.048 725.38C432.057 724.448 432.269 723.53 432.669 722.689C433.027 721.858 433.516 721.089 434.118 720.413C434.741 719.744 435.525 719.246 436.395 718.964C437.302 718.541 438.293 718.329 439.293 718.343L441.777 718.757C442.609 719.115 443.378 719.605 444.055 720.206L441.363 722.689C440.745 722.293 440.028 722.078 439.293 722.068H437.844C437.418 722.223 437.054 722.514 436.809 722.896C436.61 722.982 436.443 723.128 436.332 723.314C436.221 723.499 436.17 723.715 436.188 723.931C435.957 724.308 435.815 724.733 435.774 725.173C435.782 725.684 435.925 726.183 436.188 726.621C436.17 726.837 436.221 727.053 436.332 727.239C436.443 727.424 436.61 727.57 436.809 727.656C437.054 728.038 437.418 728.329 437.844 728.484H440.742C441.207 728.124 441.624 727.706 441.984 727.242L444.883 729.726C444.204 730.524 443.355 731.16 442.398 731.588C441.484 732.224 440.406 732.584 439.293 732.623Z" fill="#352E35"/>
<path id="Vector_81" d="M451.92 732.623C450.986 732.636 450.062 732.423 449.228 732.002C448.372 731.692 447.595 731.197 446.951 730.553C446.284 729.885 445.726 729.117 445.295 728.277C444.943 727.354 444.801 726.364 444.881 725.38C444.818 724.463 444.96 723.544 445.295 722.689C445.726 721.849 446.284 721.081 446.951 720.413C447.595 719.769 448.372 719.274 449.228 718.964C450.062 718.543 450.986 718.33 451.92 718.343C452.918 718.348 453.905 718.56 454.818 718.964C455.674 719.274 456.452 719.768 457.096 720.412C457.74 721.056 458.234 721.833 458.544 722.689C458.944 723.53 459.156 724.448 459.165 725.38C459.18 726.38 458.967 727.37 458.544 728.277C458.234 729.133 457.74 729.91 457.096 730.554C456.452 731.198 455.674 731.692 454.818 732.002C453.905 732.407 452.918 732.618 451.92 732.623ZM451.92 721.861H450.471C450.044 722.016 449.68 722.307 449.435 722.689C449.099 723.008 448.833 723.393 448.654 723.821C448.476 724.249 448.389 724.709 448.4 725.173C448.353 725.665 448.424 726.162 448.607 726.621C448.81 727.08 449.09 727.5 449.435 727.863C449.68 728.245 450.044 728.536 450.471 728.691H453.369C453.795 728.536 454.159 728.245 454.404 727.863C454.749 727.5 455.03 727.08 455.232 726.621C455.415 726.162 455.486 725.665 455.439 725.173C455.45 724.709 455.363 724.249 455.185 723.821C455.007 723.393 454.741 723.008 454.404 722.689C454.159 722.307 453.795 722.016 453.369 721.861H451.92Z" fill="#352E35"/>
<path id="Vector_82" d="M468.687 732.209L464.133 724.966V732.209H460.406V718.757H464.133L468.687 726.001V718.757H472.413V732.209H468.687Z" fill="#352E35"/>
<path id="Vector_83" d="M479.866 732.623L477.175 732.209L474.691 731.381H474.484L474.898 730.967C474.898 730.76 474.898 730.553 475.105 730.553L475.726 729.519C475.726 729.312 475.933 729.105 475.933 728.898H476.347L478.21 729.726H481.936C482.011 729.642 482.068 729.543 482.104 729.437C482.139 729.33 482.153 729.217 482.143 729.105V728.691C482.116 728.691 482.089 728.686 482.064 728.675C482.039 728.665 482.016 728.649 481.997 728.63C481.978 728.611 481.962 728.588 481.952 728.563C481.942 728.538 481.936 728.511 481.936 728.484H476.761L476.14 728.07C475.627 727.768 475.2 727.341 474.898 726.828C474.538 726.202 474.392 725.475 474.484 724.759V723.931C474.691 723.724 474.691 723.31 474.898 723.103C475.045 722.557 475.331 722.059 475.726 721.654C476.147 721.326 476.646 721.112 477.175 721.034L478.624 720.62H482.971C483.839 720.949 484.671 721.365 485.456 721.861C485.135 722.317 484.858 722.802 484.628 723.31L483.799 724.552L481.936 723.931L479.866 723.517H478.417C478.342 723.601 478.285 723.699 478.25 723.806C478.214 723.913 478.2 724.026 478.21 724.138V724.552L478.624 724.966H481.729L482.971 725.38L484.006 725.794L485.042 726.621L485.663 727.449C485.663 727.656 485.87 728.07 485.87 728.277V729.312C485.961 730.028 485.816 730.755 485.456 731.381C485.083 731.964 484.589 732.458 484.006 732.83L481.936 733.451L479.866 732.623Z" fill="#352E35"/>
<path id="Vector_84" d="M498.292 722.068H494.566V732.209H490.84V722.068H486.906V718.964H498.499V722.068H498.292Z" fill="#352E35"/>
<path id="Vector_85" d="M507.816 732.209L505.539 728.07H503.262V732.209H499.535V718.757H507.402L508.23 719.171L509.265 719.792L509.886 720.62C510.117 720.997 510.259 721.421 510.3 721.861C510.466 722.253 510.537 722.679 510.507 723.103C510.568 723.752 510.423 724.404 510.093 724.966C509.886 725.587 509.265 726.001 508.851 726.414L511.956 732.002L507.816 732.209ZM505.332 721.655H503.262V724.552H505.953L506.367 724.138L506.781 723.724V722.689L506.367 722.068H505.332V721.655Z" fill="#352E35"/>
<path id="Vector_86" d="M523.964 727.242C523.949 727.818 523.808 728.383 523.55 728.898C523.358 729.488 523.079 730.046 522.722 730.554C522.595 730.801 522.42 731.019 522.206 731.197C521.993 731.375 521.746 731.508 521.48 731.588L519.824 732.416H516.718L515.062 731.588L513.82 730.554C513.463 730.046 513.184 729.488 512.992 728.898C512.735 728.383 512.593 727.818 512.578 727.242V718.757H516.511V727.656L516.926 728.277L517.547 728.691H518.996L519.617 728.277L520.031 727.656C520.106 727.572 520.163 727.474 520.198 727.367C520.234 727.26 520.247 727.147 520.238 727.035V718.757H523.964V727.242Z" fill="#352E35"/>
<path id="Vector_87" d="M532.242 732.623C531.311 732.614 530.393 732.402 529.551 732.002C528.695 731.693 527.917 731.198 527.273 730.554C526.629 729.911 526.135 729.133 525.825 728.277C525.402 727.371 525.189 726.38 525.204 725.38C525.213 724.449 525.425 723.53 525.825 722.689C526.183 721.858 526.673 721.09 527.274 720.413C527.898 719.744 528.681 719.246 529.551 718.964C530.393 718.564 531.311 718.352 532.242 718.343L534.934 718.757C535.765 719.116 536.534 719.605 537.211 720.206L534.52 722.689C533.901 722.293 533.184 722.078 532.449 722.068H531C530.249 722.544 529.613 723.18 529.137 723.931C529.137 724.345 528.93 724.759 528.93 725.173C528.93 725.587 529.137 726.208 529.137 726.622C529.613 727.373 530.249 728.009 531 728.484H533.899C534.363 728.124 534.78 727.706 535.141 727.242L538.039 729.726C537.316 730.476 536.477 731.105 535.555 731.588C534.577 732.252 533.424 732.612 532.242 732.623Z" fill="#352E35"/>
<path id="Vector_88" d="M549.839 722.068H546.113V732.209H542.386V722.068H538.453V718.964H550.046V722.068H549.839Z" fill="#352E35"/>
<path id="Vector_89" d="M551.703 732.209V718.757H555.222V732.209H551.703Z" fill="#352E35"/>
<path id="Vector_90" d="M564.537 732.623C563.603 732.636 562.68 732.423 561.846 732.002C560.989 731.692 560.212 731.197 559.568 730.553C558.902 729.885 558.343 729.117 557.912 728.277C557.56 727.354 557.418 726.364 557.498 725.38C557.435 724.463 557.577 723.544 557.912 722.689C558.343 721.849 558.902 721.081 559.568 720.413C560.212 719.769 560.989 719.274 561.846 718.964C562.68 718.543 563.603 718.33 564.537 718.343C565.535 718.348 566.522 718.56 567.435 718.964C568.291 719.274 569.069 719.768 569.713 720.412C570.357 721.056 570.851 721.833 571.161 722.689C571.561 723.53 571.773 724.448 571.783 725.38C571.797 726.38 571.585 727.37 571.161 728.277C570.851 729.133 570.357 729.91 569.713 730.554C569.069 731.198 568.291 731.692 567.435 732.002C566.522 732.407 565.535 732.618 564.537 732.623ZM564.537 721.861H563.088C562.661 722.016 562.298 722.307 562.053 722.689C561.716 723.008 561.45 723.393 561.271 723.821C561.093 724.249 561.007 724.709 561.018 725.173C560.97 725.665 561.041 726.162 561.225 726.621C561.427 727.08 561.707 727.5 562.053 727.863C562.298 728.245 562.661 728.536 563.088 728.691H565.986C566.412 728.536 566.776 728.245 567.021 727.863C567.367 727.5 567.647 727.08 567.849 726.621C568.033 726.162 568.104 725.665 568.056 725.173C568.067 724.709 567.981 724.249 567.802 723.821C567.624 723.393 567.358 723.008 567.021 722.689C566.776 722.307 566.412 722.016 565.986 721.861H564.537Z" fill="#352E35"/>
<path id="Vector_91" d="M581.308 732.209L576.754 724.966V732.209H573.027V718.757H576.754L581.308 726.001V718.757H585.034V732.209H581.308Z" fill="#352E35"/>
<path id="Vector_92" d="M482.351 0H476.348V313.807H482.351V0Z" fill="#706F6F"/>
<path id="Vector_93" d="M532.863 0H526.859V313.807H532.863V0Z" fill="#706F6F"/>
<path id="Vector_94" d="M505.124 445.575V430.261H496.015V456.337C496.015 456.337 517.959 452.612 517.959 469.996C517.959 473.564 516.542 476.986 514.018 479.508C511.494 482.031 508.072 483.448 504.503 483.448C502.66 483.444 500.834 483.093 499.121 482.414C497.257 483.028 495.569 484.083 494.2 485.488C492.831 486.893 491.82 488.607 491.254 490.485C495.184 493.076 499.795 494.445 504.503 494.417C510.982 494.499 517.228 492.005 521.867 487.484C526.507 482.962 529.159 476.783 529.242 470.307C529.324 463.83 526.829 457.586 522.306 452.948C517.783 448.31 511.603 445.658 505.124 445.575Z" fill="#B0B0B0"/>
<path id="Vector_95" d="M509.264 401.494H490.426V436.056H509.264V401.494Z" fill="#8C8C8B"/>
<g id="Vector_96" style="mix-blend-mode:multiply">
<path d="M499.949 401.494H490.426V436.056H499.949V401.494Z" fill="#8C8C8B"/>
</g>
<path id="Vector_97" d="M543.835 326.162H462.477V365.691L481.108 409.565H524.375L543.835 365.691V326.162Z" fill="#FAB700"/>
<path id="Vector_98" d="M538.245 326.162H468.066V363.621L484.214 405.219H521.477L538.245 363.621V326.162Z" fill="#FFDE00"/>
<path id="Vector_99" d="M536.797 367.346L487.113 405.219H512.99L525.204 395.906L536.797 367.346Z" fill="#352E35"/>
<path id="Vector_100" d="M538.246 329.06L473.863 378.522L479.66 393.63L538.246 348.927V329.06Z" fill="#352E35"/>
<path id="Vector_101" d="M486.905 326.162L468.066 340.649V360.31L512.782 326.162H486.905Z" fill="#352E35"/>
<path id="Vector_102" d="M514.026 347.065C514.026 349.234 513.382 351.355 512.177 353.158C510.971 354.962 509.258 356.368 507.253 357.198C505.248 358.029 503.042 358.246 500.913 357.823C498.785 357.399 496.83 356.355 495.296 354.821C493.761 353.287 492.716 351.332 492.293 349.204C491.87 347.077 492.087 344.871 492.917 342.867C493.748 340.863 495.154 339.15 496.958 337.945C498.763 336.739 500.884 336.096 503.054 336.096C505.964 336.096 508.755 337.252 510.812 339.309C512.87 341.366 514.026 344.156 514.026 347.065Z" fill="#A4A3A3"/>
<path id="Vector_103" d="M506.157 351.204C505.6 351.598 504.97 351.878 504.304 352.029C503.639 352.18 502.95 352.198 502.277 352.083C501.604 351.968 500.961 351.721 500.383 351.357C499.806 350.993 499.306 350.519 498.911 349.962C498.517 349.405 498.237 348.776 498.086 348.11C497.935 347.445 497.916 346.756 498.032 346.083C498.147 345.411 498.394 344.767 498.758 344.19C499.122 343.613 499.596 343.113 500.153 342.719C500.693 342.327 501.306 342.048 501.956 341.898C502.606 341.748 503.279 341.73 503.936 341.846C504.593 341.962 505.22 342.209 505.779 342.572C506.339 342.936 506.819 343.408 507.192 343.96C508.016 345.058 508.369 346.438 508.175 347.796C507.981 349.155 507.255 350.381 506.157 351.204Z" fill="#8C8C8B"/>
<g id="Vector_104" style="mix-blend-mode:multiply">
<path d="M498.913 349.962C498.515 349.406 498.232 348.777 498.08 348.111C497.927 347.445 497.908 346.755 498.024 346.082C498.139 345.408 498.387 344.764 498.753 344.187C499.118 343.61 499.595 343.111 500.155 342.719C500.694 342.327 501.307 342.048 501.957 341.898C502.607 341.748 503.281 341.73 503.938 341.846C504.594 341.962 505.221 342.209 505.78 342.572C506.34 342.936 506.82 343.408 507.193 343.96L498.913 349.962Z" fill="#8C8C8B"/>
</g>
<path id="Vector_105" d="M543.627 308.985H462.477V327.901H543.627V308.985Z" fill="#8C8C8B"/>
<g id="Vector_106" style="mix-blend-mode:multiply">
<path d="M543.627 323.058H462.477V327.776H543.627V323.058Z" fill="#8C8C8B"/>
</g>
<g id="Vector_107" style="mix-blend-mode:soft-light">
<path d="M541.557 312.296C541.557 312.68 541.405 313.049 541.133 313.321C540.861 313.592 540.493 313.745 540.108 313.745H465.375C464.969 313.748 464.577 313.602 464.271 313.335C463.966 313.068 463.769 312.698 463.719 312.296C463.769 311.894 463.966 311.524 464.271 311.257C464.577 310.99 464.969 310.844 465.375 310.847H540.108C540.493 310.847 540.861 311 541.133 311.272C541.405 311.543 541.557 311.912 541.557 312.296Z" fill="white"/>
</g>
</g>
</g>
</g>
<defs>
<clipPath id="clip0_1301_16795">
<rect width="708" height="845" fill="white"/>
</clipPath>
</defs>
</svg>
